<?xml version="1.0" encoding="utf-8"?>
<!-- Generator: Adobe Illustrator 27.8.1, SVG Export Plug-In . SVG Version: 6.00 Build 0)  -->
<svg version="1.1" id="레이어_1" xmlns="http://www.w3.org/2000/svg" xmlns:xlink="http://www.w3.org/1999/xlink" x="0px"
	 y="0px" viewBox="0 0 800 800" style="enable-background:new 0 0 800 800;" xml:space="preserve">
<style type="text/css">
	.st0{fill:#FC2D29;}
</style>
<g>
	<path class="st0" d="M622.2,568.3H397c-92.8,0-168.3-75.5-168.3-168.3S304.2,231.7,397,231.7l233.8-0.4l0,0
		c15.5,0,28.1,12.6,28.1,28.1s-12.5,28.1-28.1,28.2L397,288c-61.8,0-112.1,50.3-112.1,112.1S335.2,512.2,397,512.2h225.2
		c15.5,0,28.1,12.6,28.1,28.1S637.7,568.3,622.2,568.3z"/>
</g>
<g>
	<path class="st0" d="M671.7,428.1H131.5c-15.5,0-28.1-12.6-28.1-28.1s12.6-28.1,28.1-28.1h540.1c15.5,0,28.1,12.6,28.1,28.1
		C699.8,415.5,687.2,428.1,671.7,428.1z"/>
</g>
<g>
	<path class="st0" d="M399.7,700.1c-80.1,0-155.5-31.2-212.2-87.9S99.6,480.2,99.6,400s31.2-155.5,87.9-212.2s132-87.9,212.2-87.9
		s155.5,31.2,212.2,87.9s87.9,132,87.9,212.2s-31.2,155.5-87.9,212.2C555.2,668.8,479.9,700.1,399.7,700.1z M399.7,156.2
		c-65.1,0-126.3,25.4-172.4,71.4S155.9,334.9,155.9,400s25.4,126.3,71.4,172.4c46,46,107.3,71.4,172.4,71.4s126.3-25.4,172.4-71.4
		c46-46,71.4-107.3,71.4-172.4s-25.4-126.3-71.4-172.4S464.9,156.2,399.7,156.2z"/>
</g>
</svg>
