<svg width="24" height="23" viewBox="0 0 24 23" fill="none" xmlns="http://www.w3.org/2000/svg">
<path d="M1.09376 22.3543C0.825121 22.0972 0.644485 21.7958 0.551852 21.45C0.468481 21.0954 0.473113 20.7496 0.565747 20.4127C0.658381 20.0669 0.829753 19.7743 1.07986 19.5349L9.01395 11.9279L1.07986 4.33422C0.829753 4.09484 0.658381 3.80227 0.565747 3.45649C0.482376 3.11072 0.482376 2.76495 0.565747 2.41917C0.658381 2.0734 0.834385 1.77196 1.09376 1.51484C1.3624 1.24886 1.67735 1.07598 2.03862 0.996182C2.40916 0.916389 2.77506 0.916389 3.13633 0.996182C3.49761 1.07598 3.80793 1.24 4.0673 1.48824L12.0014 9.06866L19.9216 1.48824C20.181 1.24 20.4913 1.07598 20.8526 0.996182C21.2138 0.907523 21.5705 0.907523 21.9225 0.996182C22.2837 1.08484 22.6033 1.25773 22.8812 1.51484C23.1499 1.77196 23.3305 2.0734 23.4231 2.41917C23.5158 2.76495 23.5158 3.11072 23.4231 3.45649C23.3398 3.7934 23.1684 4.09041 22.909 4.34752L14.9888 11.9279L22.909 19.5217C23.1684 19.7699 23.3398 20.0669 23.4231 20.4127C23.5065 20.7585 23.5019 21.1042 23.4092 21.45C23.3259 21.7958 23.1499 22.0972 22.8812 22.3543C22.6126 22.6114 22.2976 22.7799 21.9364 22.8597C21.5751 22.9484 21.2138 22.9528 20.8526 22.873C20.4913 22.7932 20.181 22.6247 19.9216 22.3676L12.0014 14.7872L4.0673 22.3809C3.80793 22.6203 3.49761 22.7799 3.13633 22.8597C2.78433 22.9484 2.42305 22.9484 2.05252 22.8597C1.69125 22.7799 1.37166 22.6114 1.09376 22.3543Z" fill="white"/>
</svg>
